<svg xmlns="http://www.w3.org/2000/svg" version="1.1" xmlns:xlink="http://www.w3.org/1999/xlink" xmlns:svgjs="http://svgjs.dev/svgjs" width="1000" height="1000" viewBox="0 0 1000 1000"><rect width="1000" height="1000" fill="#ffffff"></rect><g transform="matrix(0.7,0,0,0.7,149.57575757575756,282.1265587044535)"><svg viewBox="0 0 396 247" data-background-color="#ffffff" preserveAspectRatio="xMidYMid meet" height="623" width="1000" xmlns="http://www.w3.org/2000/svg" xmlns:xlink="http://www.w3.org/1999/xlink"><g id="tight-bounds" transform="matrix(1,0,0,1,0.2400000000000091,-0.09999999999999432)"><svg viewBox="0 0 395.52 247.2" height="247.2" width="395.52"><g><svg></svg></g><g><svg viewBox="0 0 395.52 247.2" height="247.2" width="395.52"><g transform="matrix(1,0,0,1,75.54432,99.40853077992278)"><svg viewBox="0 0 244.43135999999998 48.38293844015443" height="48.38293844015443" width="244.43135999999998"><g><svg viewBox="0 0 244.43135999999998 48.38293844015443" height="48.38293844015443" width="244.43135999999998"><g><svg viewBox="0 0 244.43135999999998 48.38293844015443" height="48.38293844015443" width="244.43135999999998"><g><svg viewBox="0 0 244.43135999999998 48.38293844015443" height="48.38293844015443" width="244.43135999999998"><g id="textblocktransform"><svg viewBox="0 0 244.43135999999998 48.38293844015443" height="48.38293844015443" width="244.43135999999998" id="textblock"><g><svg viewBox="0 0 244.43135999999998 48.38293844015443" height="48.38293844015443" width="244.43135999999998"><g transform="matrix(1,0,0,1,0,0)"><svg width="244.43135999999998" viewBox="0.4000000059604645 -37.70000076293945 194.23001098632812 38.45000076293945" height="48.38293844015443" data-palette-color="#6b7280"><path d="M0.4-34.55L21.95-34.55 21.25-29.55 14.15-29.55 14.15 0 7.8 0 7.8-29.55 0.4-29.55 0.4-34.55ZM41.75-6.4Q41.75-5.1 42.1-4.48 42.45-3.85 43.25-3.45L43.25-3.45 42 0.65Q39.95 0.4 38.72-0.45 37.5-1.3 36.9-3.05L36.9-3.05Q34.6 0.75 30.45 0.75L30.45 0.75Q27.15 0.75 25.2-1.48 23.25-3.7 23.25-7.4L23.25-7.4Q23.25-11.7 25.92-13.95 28.6-16.2 33.7-16.2L33.7-16.2 35.75-16.2 35.75-18.05Q35.75-20.55 34.87-21.58 34-22.6 32.05-22.6L32.05-22.6Q29.7-22.6 26.2-21.3L26.2-21.3 24.8-25.3Q26.8-26.2 28.95-26.68 31.1-27.15 33.05-27.15L33.05-27.15Q41.75-27.15 41.75-18.35L41.75-18.35 41.75-6.4ZM32.1-3.7Q34.5-3.7 35.75-7L35.75-7 35.75-12.55 34.3-12.55Q31.75-12.55 30.57-11.4 29.4-10.25 29.4-7.85L29.4-7.85Q29.4-5.8 30.1-4.75 30.8-3.7 32.1-3.7L32.1-3.7ZM53.15 0.75Q50.45 0.75 48.87-0.93 47.3-2.6 47.3-5.4L47.3-5.4 47.3-37.05 53.45-37.7 53.45-5.65Q53.45-5 53.75-4.6 54.05-4.2 54.65-4.2L54.65-4.2Q55-4.2 55.32-4.3 55.65-4.4 55.75-4.4L55.75-4.4 56.95-0.2Q55.25 0.75 53.15 0.75L53.15 0.75ZM78.84-13.85Q78.84-13.4 78.69-11.3L78.69-11.3 65.04-11.3Q65.24-7.2 66.47-5.58 67.69-3.95 69.94-3.95L69.94-3.95Q71.49-3.95 72.74-4.48 73.99-5 75.44-6.15L75.44-6.15 77.99-2.65Q74.49 0.75 69.59 0.75L69.59 0.75Q64.39 0.75 61.62-2.85 58.84-6.45 58.84-13L58.84-13Q58.84-19.55 61.49-23.35 64.14-27.15 68.99-27.15L68.99-27.15Q73.64-27.15 76.24-23.78 78.84-20.4 78.84-13.85L78.84-13.85ZM72.84-15.3L72.84-15.65Q72.84-19.4 71.94-21.13 71.04-22.85 69.04-22.85L69.04-22.85Q67.19-22.85 66.22-21.18 65.24-19.5 65.04-15.3L65.04-15.3 72.84-15.3ZM95.49-27.15Q98.34-27.15 99.99-25.1 101.64-23.05 101.64-19.6L101.64-19.6 101.64 0 95.49 0 95.49-18.9Q95.49-20.8 94.97-21.63 94.44-22.45 93.44-22.45L93.44-22.45Q91.34-22.45 89.29-18.5L89.29-18.5 89.29 0 83.14 0 83.14-26.45 88.49-26.45 88.94-23Q90.29-25.1 91.82-26.13 93.34-27.15 95.49-27.15L95.49-27.15ZM118.34-5L120.49-1.2Q118.04 0.75 114.74 0.75L114.74 0.75Q111.29 0.75 109.49-1.23 107.69-3.2 107.69-6.6L107.69-6.6 107.69-22 104.59-22 104.59-26.45 107.69-26.45 107.69-32.3 113.84-33.05 113.84-26.45 118.84-26.45 118.24-22 113.84-22 113.84-6.6Q113.84-4.2 115.89-4.2L115.89-4.2Q116.54-4.2 117.04-4.38 117.54-4.55 118.34-5L118.34-5ZM144.89 0L138.49 0 138.49-15.5 129.54-15.5 129.54 0 123.19 0 123.19-34.55 129.54-34.55 129.54-20.6 138.49-20.6 138.49-34.55 144.89-34.55 144.89 0ZM168.83-26.45L168.83 0 163.48 0 163.18-3.35Q161.93-1.3 160.38-0.28 158.83 0.75 156.78 0.75L156.78 0.75Q153.88 0.75 152.21-1.3 150.53-3.35 150.53-6.65L150.53-6.65 150.53-26.45 156.68-26.45 156.68-7Q156.68-3.9 158.78-3.9L158.78-3.9Q159.98-3.9 160.93-4.83 161.88-5.75 162.68-7.45L162.68-7.45 162.68-26.45 168.83-26.45ZM186.68-27.15Q190.53-27.15 192.58-23.65 194.63-20.15 194.63-13.25L194.63-13.25Q194.63-6.75 192.33-3 190.03 0.75 186.03 0.75L186.03 0.75Q184.28 0.75 182.83-0.13 181.38-1 180.33-2.55L180.33-2.55 179.98 0 174.53 0 174.53-37 180.68-37.65 180.68-23.6Q181.73-25.3 183.26-26.23 184.78-27.15 186.68-27.15L186.68-27.15ZM184.38-3.9Q186.23-3.9 187.26-6 188.28-8.1 188.28-13.25L188.28-13.25Q188.28-18.6 187.36-20.58 186.43-22.55 184.73-22.55L184.73-22.55Q183.58-22.55 182.53-21.6 181.48-20.65 180.68-19.1L180.68-19.1 180.68-6.7Q181.33-5.45 182.31-4.67 183.28-3.9 184.38-3.9L184.38-3.9Z" opacity="1" transform="matrix(1,0,0,1,0,0)" fill="#6b7280" class="wordmark-text-0" data-fill-palette-color="primary" id="text-0"></path></svg></g></svg></g></svg></g></svg></g></svg></g></svg></g></svg></g><path d="M189.955 93.409L189.955 32.591 7.936 32.591 7.936 214.609 189.955 214.609 189.955 153.791 185.591 153.791 185.591 210.246 12.299 210.246 12.299 36.954 185.591 36.954 185.591 93.409Z" fill="#6b7280" stroke="transparent" data-fill-palette-color="primary"></path></svg></g><defs></defs></svg><rect width="395.52" height="247.2" fill="none" stroke="none" visibility="hidden"></rect></g></svg></g></svg>